<svg xmlns="http://www.w3.org/2000/svg" xmlns:xlink="http://www.w3.org/1999/xlink" xmlns:v="http://vecta.io" width="517.7" height="416" viewBox="0 0 517.6861792086743 416.0000270568938">
    <style>
        <![CDATA[svg{stroke:#000;stroke-linecap:round;stroke-linejoin:round;fill:#fff;fill-rule:evenodd;font-family:Roboto;font-size:14px;text-anchor:middle;}svg text>tspan{paint-order:stroke;white-space:pre;}svg .Text\.cls{stroke:none;}]]>
    </style>
    <defs>
        <linearGradient id="L00100100019010198b80000.grad" x1="0%" y1="0%" x2="100%" y2="100%">
            <stop offset="0%" stop-color="#190101"/>
            <stop offset="98%" stop-color="#b80000"/>
        </linearGradient>
    </defs>
    <g transform="translate(0.5 0.5)">
        <g>
            <g transform="translate(35 4.8)">
                <path d="M 445 0.2 L 285 0.2 L 170 75.2 L 155 200.2 L 0 360.2 L 230 240.2 L 240 165.2 L 360 165.2 L 350 205.2 L 160 300.2 L 100 410.2 L 460 240.2 C 495 115.2 417.5 135.2 375 135.2 C 400 145.2 470 130.2 430 230.2 L 115 395.2 L 170 305.2 L 360 210.2 L 370 155.2 L 235 155.2 L 225 230.2 L 25 340.2 L 170 200.2 L 180 80.2 L 285 5.2 L 438 4.2 C 458 9.2 459 15.2 466.5 30.2 C 476.5 45.2 471.5 80.2 454 95.2 C 429 120.2 410 120.2 380 130.2 C 515 135.2 492 -5.7 445 0.2 Z" fill="url(#L00100100019010198b80000.grad)" stroke="url(#L00100100019010198b80000.grad)"/>
            </g>
            <g transform="translate(14 10)">
                <path d="M 0.00001 0.00001 L 6 0" fill="url(#L00100100019010198b80000.grad)" stroke="url(#L00100100019010198b80000.grad)"/>
            </g>
            <g>
                <path d="M 275 10 L 180 65 L 140 65 L 120 265 L 150 75 L 185 75 L 290 5 L 0 0 L 65 70 L 55 320 L 75 70 L 20 10" fill="url(#L00100100019010198b80000.grad)" stroke="url(#L00100100019010198b80000.grad)"/>
            </g>
            <g transform="translate(479 5)">
                <path d="M 0.00001 2 L 1 0" fill="url(#L00100100019010198b80000.grad)" stroke="url(#L00100100019010198b80000.grad)"/>
            </g>
            <g transform="translate(21 10)">
                <path d="M 0 0 L 55 60 L 35 310 L 98 255 L 118 55 L 159 54 L 253 0 Z" fill="#000000" stroke="#00ffd5"/>
            </g>
            <g transform="translate(304 45)">
                <path d="M 9.5 1 L 10 5.5 L 0 65 L 100 70 L 145 40 L 160 0 L 9 0 Z" stroke="#00ffd5" fill="none" fill-opacity="0"/>
            </g>
            <g transform="translate(64 85)">
                <path fill="#000000" d="M 239.5 25 L 152 0 L 142 120 L 0 257.5 L 195 150 L 205 75 L 342.5 75 L 332.5 130 L 142.5 225 L 87.5 312.5 L 400 150 C 411.4 121.2 420 90 405 75 C 390 62.5 389.5 65.5 344.5 55.5 L 340 30 L 240 25"/>
            </g>
            <g transform="translate(216.5 10)">
                <path fill="#000000" d="M 0 75 L 87.5 100 L 97.5 40 L 97.5 35 L 247.5 35 L 232.5 75 L 187.5 105 L 192.5 130 L 197.5 125 C 250 112.5 265 100.8 280 80 C 295 59.2 290 30 280 17.5 C 277.5 10 267.5 0.1 257.5 0 L 105 0 Z"/>
            </g>
            <g transform="translate(310 46)">
                <path d="M 4.3 0.3 C 5.5 12.5 2.8 19.5 0 58 L 94 58 L 128 34 L 138 10 L 19 10 L 4 0" stroke="#00ffd5" fill="none" fill-opacity="0"/>
            </g>
            <g transform="translate(35 4.8)">
                <path d="M 445 0.2 C 492 -5.7 515 135.2 380 130.2 C 410 120.2 429 120.2 454 95.2 C 471.5 80.2 476.5 45.2 466.5 30.2 C 459 15.2 458 9.2 438 4.2 L 285 5.2 L 180 80.2 L 170 200.2 L 25 340.2 L 225 230.2 L 235 155.2 L 370 155.2 L 360 210.2 L 170 305.2 L 115 395.2 L 430 230.2 C 470 130.2 400 145.2 375 135.2 C 417.5 135.2 495 115.2 460 240.2 L 100 410.2 L 160 300.2 L 350 205.2 L 360 165.2 L 240 165.2 L 230 240.2 L 0 360.2 L 155 200.2 L 170 75.2 L 285 0.2 L 445 0.2" stroke="#00ffd5" fill="none" fill-opacity="0"/>
            </g>
            <g transform="translate(304 45)">
                <path d="M 160 0 L 145 40 L 100 70 L 0 65 L 10 5 L 5 60 L 100 60 L 135 35 L 145 10 L 25 10 L 10 0 Z" fill="url(#L00100100019010198b80000.grad)" stroke="#00ffd5"/>
            </g>
        </g>
    </g>
</svg>